<?xml version="1.0" standalone="no"?>
<!DOCTYPE svg PUBLIC "-//W3C//DTD SVG 20010904//EN"
 "http://www.w3.org/TR/2001/REC-SVG-20010904/DTD/svg10.dtd">
<svg version="1.0" xmlns="http://www.w3.org/2000/svg"
 width="197.000000pt" height="197.000000pt" viewBox="0 0 197.000000 197.000000"
 preserveAspectRatio="xMidYMid meet">
<metadata>
Created by potrace 1.14, written by Peter Selinger 2001-2017
</metadata>
<g transform="translate(0.000000,197.000000) scale(0.100000,-0.100000)"
fill="#000000" stroke="none">
<path d="M1320 1624 c0 -4 13 -29 30 -55 202 -329 204 -912 5 -1243 -19 -32
-35 -62 -35 -67 0 -5 20 -9 44 -9 38 0 47 4 69 33 175 230 236 649 145 1002
-23 90 -103 266 -143 314 -23 26 -34 31 -71 31 -24 0 -44 -3 -44 -6z"/>
<path d="M480 1253 c-61 -78 40 -163 110 -93 26 26 25 60 -1 94 -29 36 -80 36
-109 -1z"/>
<path d="M750 970 l0 -50 245 0 245 0 0 50 0 50 -245 0 -245 0 0 -50z"/>
<path d="M481 634 c-61 -78 35 -169 104 -99 27 26 31 51 14 89 -20 43 -87 49
-118 10z"/>
</g>
</svg>
